<svg width="900" height="1600" viewBox="0 0 900 1600" fill="none" xmlns="http://www.w3.org/2000/svg">
  <defs>
    <linearGradient id="bgm" x1="0" y1="0" x2="900" y2="1600" gradientUnits="userSpaceOnUse">
      <stop stop-color="#060A14"/>
      <stop offset="1" stop-color="#0A1320"/>
    </linearGradient>
    <radialGradient id="reactor" cx="0" cy="0" r="1" gradientUnits="userSpaceOnUse" gradientTransform="translate(450 710) rotate(90) scale(230 200)">
      <stop stop-color="#83E9FF"/>
      <stop offset="0.22" stop-color="#2FC7FF"/>
      <stop offset="0.5" stop-color="#B05CFF"/>
      <stop offset="0.78" stop-color="#FF55CF"/>
      <stop offset="1" stop-color="#0A1320" stop-opacity="0"/>
    </radialGradient>
    <filter id="glowm" x="-50%" y="-50%" width="200%" height="200%">
      <feGaussianBlur stdDeviation="8" result="blur"/>
      <feMerge>
        <feMergeNode in="blur"/>
        <feMergeNode in="SourceGraphic"/>
      </feMerge>
    </filter>
  </defs>

  <rect width="900" height="1600" rx="28" fill="url(#bgm)"/>
  <rect x="80" y="120" width="740" height="1360" rx="34" fill="#08111D" stroke="#24364C" stroke-width="2"/>
  <path d="M450 1320C318 1226 230 1110 188 966C150 834 182 670 300 560C380 486 446 458 450 458C454 458 520 486 600 560C718 670 750 834 712 966C670 1110 582 1226 450 1320Z" fill="url(#reactor)"/>

  <circle cx="450" cy="708" r="160" fill="#09111D" stroke="#7CE6FF" stroke-width="4"/>
  <circle cx="450" cy="708" r="214" stroke="#EB57E6" stroke-width="4" opacity="0.82"/>
  <circle cx="450" cy="708" r="256" stroke="#FFD76A" stroke-width="3" opacity="0.68" stroke-dasharray="6 12"/>

  <path d="M186 1160C284 1122 356 1082 402 1012C438 958 446 890 450 708" stroke="#78F0AB" stroke-width="5" stroke-linecap="round" filter="url(#glowm)"/>
  <path d="M186 1228C308 1190 388 1146 424 1066C444 1022 448 926 450 708" stroke="#6CC7FF" stroke-width="5" stroke-linecap="round" filter="url(#glowm)"/>
  <path d="M186 1296C340 1258 410 1216 434 1138C446 1096 448 982 450 708" stroke="#FFBE67" stroke-width="5" stroke-linecap="round" filter="url(#glowm)"/>

  <path d="M714 1160C616 1122 544 1082 498 1012C462 958 454 890 450 708" stroke="#78F0AB" stroke-width="5" stroke-linecap="round" filter="url(#glowm)"/>
  <path d="M714 1228C592 1190 512 1146 476 1066C456 1022 452 926 450 708" stroke="#6CC7FF" stroke-width="5" stroke-linecap="round" filter="url(#glowm)"/>
  <path d="M714 1296C560 1258 490 1216 466 1138C454 1096 452 982 450 708" stroke="#FFBE67" stroke-width="5" stroke-linecap="round" filter="url(#glowm)"/>

  <circle cx="300" cy="520" r="18" fill="#74F0A6" filter="url(#glowm)"/>
  <circle cx="602" cy="520" r="18" fill="#74F0A6" filter="url(#glowm)"/>
  <polygon points="450,336 476,362 450,388 424,362" fill="#E57EFF" filter="url(#glowm)"/>
  <circle cx="354" cy="942" r="16" fill="#FFB15B" filter="url(#glowm)"/>
  <circle cx="546" cy="942" r="16" fill="#FFB15B" filter="url(#glowm)"/>

  <rect x="352" y="1144" width="196" height="26" rx="13" fill="#ECF2F8"/>
  <rect x="390" y="1128" width="120" height="8" rx="4" fill="#567EA6"/>

  <rect x="188" y="180" width="524" height="80" rx="20" fill="#121D2A" stroke="#2A415C"/>
  <text x="262" y="230" fill="#EEF3F9" font-family="Arial, sans-serif" font-size="36" font-weight="700">Signal Shift</text>
  <text x="235" y="278" fill="#8FB8D8" font-family="Arial, sans-serif" font-size="18">Biometric arcade under pressure</text>
</svg>
