<svg width="1400" height="900" viewBox="0 0 1400 900" fill="none" xmlns="http://www.w3.org/2000/svg">
  <defs>
    <linearGradient id="bg" x1="0" y1="0" x2="1400" y2="900" gradientUnits="userSpaceOnUse">
      <stop stop-color="#050914"/>
      <stop offset="1" stop-color="#0B1421"/>
    </linearGradient>
    <radialGradient id="core" cx="0" cy="0" r="1" gradientUnits="userSpaceOnUse" gradientTransform="translate(742 452) rotate(90) scale(172 240)">
      <stop stop-color="#84E9FF"/>
      <stop offset="0.24" stop-color="#36C7FF"/>
      <stop offset="0.5" stop-color="#9B5CFF"/>
      <stop offset="0.76" stop-color="#FF4CC7"/>
      <stop offset="1" stop-color="#0B1421" stop-opacity="0"/>
    </radialGradient>
    <linearGradient id="lane1" x1="0" y1="0" x2="1" y2="0">
      <stop stop-color="#72F3A6" stop-opacity="0"/>
      <stop offset="1" stop-color="#72F3A6"/>
    </linearGradient>
    <linearGradient id="lane2" x1="0" y1="0" x2="1" y2="0">
      <stop stop-color="#65C8FF" stop-opacity="0"/>
      <stop offset="1" stop-color="#65C8FF"/>
    </linearGradient>
    <linearGradient id="lane3" x1="0" y1="0" x2="1" y2="0">
      <stop stop-color="#FFBF66" stop-opacity="0"/>
      <stop offset="1" stop-color="#FFBF66"/>
    </linearGradient>
    <filter id="glow" x="-50%" y="-50%" width="200%" height="200%">
      <feGaussianBlur stdDeviation="10" result="blur"/>
      <feMerge>
        <feMergeNode in="blur"/>
        <feMergeNode in="SourceGraphic"/>
      </feMerge>
    </filter>
  </defs>

  <rect width="1400" height="900" rx="24" fill="url(#bg)"/>
  <rect x="48" y="48" width="1304" height="804" rx="22" stroke="#23364C" stroke-width="2"/>

  <path d="M178 728H1220" stroke="#193046" stroke-width="2"/>
  <path d="M220 728C346 612 486 548 672 548C878 548 1046 610 1204 728" stroke="#1A3043" stroke-width="2"/>
  <path d="M240 774C384 680 510 630 670 630C848 630 1016 684 1164 774" stroke="#1A3043" stroke-width="2"/>

  <circle cx="742" cy="452" r="198" fill="url(#core)"/>
  <circle cx="742" cy="452" r="80" fill="#07111D" stroke="#80E8FF" stroke-width="4"/>
  <circle cx="742" cy="452" r="124" stroke="#E94FE2" stroke-width="3" stroke-dasharray="6 10" opacity="0.8"/>
  <circle cx="742" cy="452" r="168" stroke="#FFD467" stroke-width="3" opacity="0.58"/>

  <path d="M210 698C332 662 420 610 496 560C590 500 648 452 742 452" stroke="url(#lane1)" stroke-width="5" stroke-linecap="round" filter="url(#glow)"/>
  <path d="M210 736C386 706 514 668 612 602C676 560 706 506 742 452" stroke="url(#lane2)" stroke-width="5" stroke-linecap="round" filter="url(#glow)"/>
  <path d="M210 774C414 756 560 722 646 656C706 610 728 546 742 452" stroke="url(#lane3)" stroke-width="5" stroke-linecap="round" filter="url(#glow)"/>

  <path d="M1274 692C1148 656 1060 604 984 554C890 494 832 446 742 452" stroke="url(#lane1)" stroke-width="5" stroke-linecap="round" filter="url(#glow)"/>
  <path d="M1274 730C1098 700 970 662 872 596C808 554 778 502 742 452" stroke="url(#lane2)" stroke-width="5" stroke-linecap="round" filter="url(#glow)"/>
  <path d="M1274 768C1070 750 924 716 838 650C778 604 756 542 742 452" stroke="url(#lane3)" stroke-width="5" stroke-linecap="round" filter="url(#glow)"/>

  <circle cx="448" cy="338" r="24" fill="#73F0A6" filter="url(#glow)"/>
  <circle cx="1046" cy="370" r="24" fill="#73F0A6" filter="url(#glow)"/>
  <polygon points="648,334 672,358 648,382 624,358" fill="#6EB0FF" filter="url(#glow)"/>
  <polygon points="858,322 882,346 858,370 834,346" fill="#6EB0FF" filter="url(#glow)"/>
  <circle cx="678" cy="574" r="22" fill="#FFB259" filter="url(#glow)"/>
  <circle cx="816" cy="574" r="22" fill="#FFB259" filter="url(#glow)"/>
  <polygon points="742,252 770,280 742,308 714,280" fill="#E27CFF" filter="url(#glow)"/>

  <rect x="654" y="720" width="176" height="24" rx="12" fill="#EDF2F8"/>
  <rect x="688" y="706" width="108" height="8" rx="4" fill="#537DA7"/>

  <rect x="164" y="112" width="238" height="52" rx="16" fill="#121C29" stroke="#2A415C"/>
  <text x="194" y="145" fill="#EAF1F8" font-family="Arial, sans-serif" font-size="24" font-weight="700">Signal Shift</text>
  <rect x="1004" y="112" width="220" height="52" rx="16" fill="#121C29" stroke="#2A415C"/>
  <text x="1038" y="145" fill="#80E8FF" font-family="Arial, sans-serif" font-size="24" font-weight="700">EEG + rPPG</text>
</svg>
